<?xml version="1.0" encoding="utf-8"?>
<!-- Svg Vector Icons : http://www.onlinewebfonts.com/icon -->
<!DOCTYPE svg PUBLIC "-//W3C//DTD SVG 1.1//EN" "http://www.w3.org/Graphics/SVG/1.1/DTD/svg11.dtd">
<svg version="1.1" xmlns="http://www.w3.org/2000/svg" xmlns:xlink="http://www.w3.org/1999/xlink" x="0px" y="0px" viewBox="0 0 1000 1000" enable-background="new 0 0 1000 1000" xml:space="preserve">
<metadata> Svg Vector Icons : http://www.onlinewebfonts.com/icon </metadata>
<g><g><g><g><path d="M974.4,775.5H25.6c-8.6,0-15.6,7-15.6,15.6v122.7c0,42.1,34.1,76.3,76.3,76.3h827.4c42.1,0,76.3-34.2,76.3-76.3V791C990,782.4,983,775.5,974.4,775.5z"/><path d="M42,706.9H958c6,0,11.4-3.4,14-8.8c2.6-5.4,1.9-11.7-1.8-16.4L774.1,432.6c-14.5-18.4-36.6-29.1-59.9-29.1h-79.4v131.4c-0.1,55.1-53,90.7-134.8,90.7S365.4,590,365.3,534.8V403.5h-79.4c-23.4,0-45.5,10.7-59.9,29.1L29.8,681.7c-3.7,4.7-4.4,11.1-1.8,16.4C30.6,703.5,36.1,706.9,42,706.9z"/><path d="M430.6,318.9v215.9c0,14.1,31.1,25.5,69.4,25.5c38.3,0,69.4-11.4,69.4-25.5V318.9c54.9-26.1,93.1-81.6,93.1-146.4C662.5,82.8,589.7,10,500,10c-89.7,0-162.5,72.8-162.5,162.5C337.5,237.3,375.7,292.8,430.6,318.9z"/></g></g></g><g></g><g></g><g></g><g></g><g></g><g></g><g></g><g></g><g></g><g></g><g></g><g></g><g></g><g></g><g></g></g>
</svg>